<?xml version="1.0" encoding="UTF-8"?>
<svg id="Layer_2" data-name="Layer 2" xmlns="http://www.w3.org/2000/svg" viewBox="0 0 126.78 61.66">
  <defs>
    <style>
      .cls-1 {
        fill: #67f8b3;
      }

      .cls-2 {
        fill: #fff;
      }
    </style>
  </defs>
  <g id="Layer_1-2" data-name="Layer 1">
    <g>
      <path class="cls-2" d="m95.09,50.47c2.22,1.28,4.52,2.59,6.88,3.95-1.24,1.84-2.72,3.31-4.5,4.49-2.43,1.6-5.13,2.42-8,2.65-3.85.31-7.64.01-11.13-1.78-6.1-3.13-9.19-8.22-9.49-15.03-.18-4.1.67-7.95,3.09-11.34,3.41-4.79,8.11-7.15,13.96-7.33,4.5-.14,8.55,1.03,11.92,4.11,4.54,4.16,6.22,9.42,5.75,15.46-.05.59-.15,1.17-.24,1.82h-25.36c.55,2.1,1.58,3.8,3.4,4.78,3.68,1.99,7.48,2.11,11.23.18.88-.45,1.59-1.24,2.49-1.97Zm-.23-9.77c-.72-4.39-4.52-7.23-9.11-6.86-4.14.33-7.85,3.59-7.81,6.86h16.92Z"/>
      <path class="cls-2" d="m111,60.61v-25.18h-4.76v-8.36h4.68c.09-1.17.13-2.29.27-3.39.46-3.47,1.8-6.49,4.69-8.66,2.11-1.58,4.56-2.23,7.13-2.44,1.22-.1,2.46-.02,3.76-.02v8.3c-.81.05-1.66.02-2.49.16-3.22.53-4.8,2.64-4.49,6.02h7v8.37h-7.04v25.2h-8.75Z"/>
      <path class="cls-2" d="m63.39,60.65h-8.62V27.1h8.62v33.54Z"/>
      <path class="cls-2" d="m59.08,23.02c-2.94,0-5.36-2.35-5.38-5.24-.02-2.92,2.42-5.38,5.34-5.38,3,0,5.43,2.42,5.42,5.38-.02,2.88-2.43,5.23-5.38,5.24Z"/>
      <path class="cls-1" d="m5.09,5.1v9.73H0V0C.2,0,.39,0,.58,0c9.92,0,19.84,0,29.75.03,4.51.02,8.58,1.34,11.97,4.42,2.81,2.55,4.49,5.76,5.29,9.44.95,4.36.91,8.69-.71,12.91-.38,1-.88,1.96-1.37,2.91-.16.31-.16.52.03.8,1.6,2.32,2.75,4.83,3.31,7.6,1.71,8.39-1.96,17.33-9.58,21.49-2.52,1.38-5.23,2.07-8.11,2.07-7.85,0-15.71,0-23.56-.02-2.45,0-4.9-.08-7.39-.12v-15.52h4.93v10.47c.28.02.5.04.72.04,6.72,0,13.45,0,20.17,0,1.64,0,3.28.09,4.92.06,4.69-.11,8.34-2.2,10.78-6.14,3.11-5.03,3.25-10.27.52-15.55-.1-.2-.23-.39-.36-.6-.53.43-1.01.84-1.51,1.22-2.97,2.24-6.33,3.35-10.05,3.36-4.04,0-8.08,0-12.12,0-5.81,0-11.61-.02-17.42-.03-.17,0-.35,0-.59,0v-16.06c.16,0,.36,0,.56,0,9.58.01,19.16.03,28.75.03,2.64,0,5.27.08,7.73,1.16,1.46.64,2.85,1.44,4.39,2.22.29-.88.7-1.85.94-2.86.94-3.99.67-7.87-1.17-11.59-2.16-4.36-5.73-6.49-10.52-6.53-7.96-.07-15.92-.07-23.87-.1-.63,0-1.26,0-1.94,0Zm33.38,25.35c-1.93-1.48-4.04-2.37-6.41-2.47-2.45-.1-4.9-.09-7.35-.1-6.26-.01-12.52,0-18.79,0h-.58v5.89c1.5,0,2.97,0,4.43,0,6.93-.01,13.86-.02,20.79-.04,3.06,0,5.65-1.16,7.91-3.29Z"/>
    </g>
  </g>
</svg>